<?xml version="1.0" encoding="utf-8" ?><svg xmlns="http://www.w3.org/2000/svg" xmlns:xlink="http://www.w3.org/1999/xlink" width="1138" height="1992" viewBox="0 0 1138 1992"><path fill="#55845E" transform="scale(1.48177 1.48214)" d="M400.41 301.814C403.235 303.406 406.346 305.224 409.717 305.155C411.876 306.322 413.228 306.969 415.107 308.571C416.78 311.086 419.336 315.518 421.707 317.042L425.068 319.799C425.647 323.027 426.214 324.08 427.616 327.089L430.38 326.396C435.599 322.904 444.941 321.827 451.022 320.631C471.199 316.663 489.349 315.696 509.832 316.356C520.343 316.694 537.195 318.324 547.188 317.177C558.743 321.443 581.216 325.438 594.128 328.828C616.945 334.818 633.168 342.625 654.088 353.005C659.707 355.793 668.997 359.615 674.065 362.695C676.543 364.117 679.571 366.15 681.107 368.546C689.898 382.257 705.954 408.664 712.037 423.291L712.168 424.661C709.337 426.05 688.064 424.525 683.412 424.355L683.258 425.343C686.811 429.738 696.765 435.273 701.633 439.602C706.51 443.387 708.771 448.387 712.271 453.284C727.677 474.837 741.59 497.287 752.847 521.384C743.233 519.326 691.05 509.426 686.488 506.165C685 502.24 687.153 491.502 687.684 486.792C685.029 492.751 682.279 498.666 679.434 504.536C670.856 502.963 640.95 490.371 630.287 486.787L630.428 457.556C625.837 465.87 622.061 474.291 618.082 482.904C600.432 477.666 581.241 469.598 563.54 463.344C570.6 473.825 578.957 483.544 585.97 493.967C593.458 505.094 599.609 518.352 605.524 530.475C609.35 538.319 614.245 547.722 617.444 555.732C614.789 555.817 609.995 555.665 607.83 556.81C603.047 556.161 587.35 545.203 580.493 549.165L579.508 547.839C575.287 551.417 553.782 570.726 550.003 572.558C543.078 577.041 538.86 580.085 532.403 585.29C525.288 579.894 500.376 555.383 495.067 548.628C499.908 537.484 506.93 531.712 511.316 522.781C501.224 529.213 496.783 532.758 487.944 540.548C478.665 532.92 469.725 523.632 462.01 514.457C452.509 523.776 441.89 527.009 428.789 523.518C427.882 522.84 426.818 522.455 425.815 521.921C411.247 514.176 407.154 509.376 402.113 494.312L395.29 493.926C394.471 509.14 393.137 516.994 382.07 528.362C373.557 537.106 358.34 536.565 356.673 538.111C355.615 537.57 350.354 535.977 348.912 535.409C340.794 532.206 337.72 529.069 331.716 523.083C327.884 527.386 319.092 537.28 315.947 541.795C315.205 542.492 314.676 543.311 313.931 543.012C306.732 540.116 294.733 531.809 288.198 527.959C294.099 534.904 301.41 544.871 306.698 552.474C298.005 562.159 283.245 579.892 274.738 588.035L255.117 575.117C259.307 580.193 266.237 588.083 269.833 593.253C261.038 600.32 251.348 606.678 242.257 613.392C228.901 623.255 215.848 632.741 201.877 641.718L200.068 642.744L199.176 642.129C197.983 635.042 196.981 628.488 195.564 621.391C191.844 602.764 183.129 586.3 187.084 567.133L188.044 562.951C195.428 542.019 202.509 520.982 209.285 499.846L215.782 496.061C217.881 491.831 218.774 490.058 220.103 485.443L219.927 473.494L215.981 467.831L220.322 465.318C217.119 458.681 212.879 441.898 210.19 433.752C209.829 431.693 210.632 430.411 211.471 428.515C213.618 423.023 217.576 415.556 220.264 410.114C221.069 414.948 218.269 416.499 222.519 419.62C229.306 420.74 237.446 407.079 240.236 406.208C251.829 402.588 244.548 398.148 249 392.731C254.364 394.261 252.109 391.171 257.216 391.361C259.455 392.327 261.735 395.98 263.329 398.112C269.447 393.219 269.049 390.143 276.146 390.127C280.138 385.185 286.925 373.422 293.238 372.325C304.639 364.094 313.765 352.373 326.945 345.101C332.205 342.198 359.504 334.19 360.486 333.071L358.432 332.19C363.481 332.03 368.528 331.802 373.571 331.507C372.837 325.841 372.935 323.107 374.635 317.65L375.023 316.4C376.806 314.6 377.296 313.36 378.429 311.109L383.257 305.589C389.134 303.721 394.346 302.743 400.41 301.814ZM559.239 459.102C559.622 449.086 559.966 439.668 559.869 429.648C557.545 434.134 552.244 442.819 549.286 446.656C551.664 449.656 552.459 450.801 553.388 454.574C555.667 455.759 557.321 457.399 559.239 459.102Z"/><path fill="#CAFEB9" transform="scale(1.48177 1.48214)" d="M400.41 301.814C403.235 303.406 406.346 305.224 409.717 305.155C411.876 306.322 413.228 306.969 415.107 308.571C416.78 311.086 419.336 315.518 421.707 317.042L425.068 319.799C425.647 323.027 426.214 324.08 427.616 327.089L430.38 326.396C435.599 322.904 444.941 321.827 451.022 320.631C471.199 316.663 489.349 315.696 509.832 316.356C520.343 316.694 537.195 318.324 547.188 317.177C558.743 321.443 581.216 325.438 594.128 328.828C616.945 334.818 633.168 342.625 654.088 353.005C659.707 355.793 668.997 359.615 674.065 362.695C676.543 364.117 679.571 366.15 681.107 368.546C689.898 382.257 705.954 408.664 712.037 423.291L712.168 424.661C709.337 426.05 688.064 424.525 683.412 424.355C676.492 423.121 672.862 423.549 665.945 423.38C654.026 421.466 637.946 421.798 625.341 420.636C626.116 415.377 626.893 412.932 624.922 408.12L624.012 408.156C622.223 411.02 620.068 417.036 618.751 420.382C601.609 417.361 584.436 414.516 567.235 411.847C567.445 402.501 567.604 393.154 567.711 383.807C563.551 392.493 559.729 401.644 555.896 410.501C536.745 407.453 517.558 404.634 498.339 402.045C499.198 392.628 499.594 381.847 500.103 372.333C494.894 381.44 489.747 390.584 484.663 399.762C463.657 395.488 436.788 394.368 415.067 390.095C413.609 388.641 413.897 388.024 413.408 385.697C413.672 377.898 398.787 351.573 394.435 344.742C391.779 342.185 389.1 339.653 386.398 337.145C381.234 333.466 379.797 332.424 373.571 331.507C372.837 325.841 372.935 323.107 374.635 317.65L375.023 316.4C376.806 314.6 377.296 313.36 378.429 311.109L383.257 305.589C389.134 303.721 394.346 302.743 400.41 301.814Z"/><path fill="#9BD299" transform="scale(1.48177 1.48214)" d="M640.617 363.015C642.679 361.988 641.835 362.037 643.791 362.665C648.876 362.882 670.917 364.682 674.065 362.695C676.543 364.117 679.571 366.15 681.107 368.546C689.898 382.257 705.954 408.664 712.037 423.291L712.168 424.661C709.337 426.05 688.064 424.525 683.412 424.355C676.492 423.121 672.862 423.549 665.945 423.38C654.026 421.466 637.946 421.798 625.341 420.636C626.116 415.377 626.893 412.932 624.922 408.12C627.843 406.797 625.49 404.631 626.521 402.13C631.791 389.348 635.482 375.799 640.617 363.015Z"/><path fill="#7EBD8B" transform="scale(1.48177 1.48214)" d="M674.065 362.695C676.543 364.117 679.571 366.15 681.107 368.546C689.898 382.257 705.954 408.664 712.037 423.291C710.028 422.484 707.499 421.332 705.889 419.871C685.794 401.635 665.389 383.83 644.558 366.439C643.243 365.34 642.418 364.856 642.201 363.213L643.791 362.665C648.876 362.882 670.917 364.682 674.065 362.695Z"/><path fill="#B5ECAC" transform="scale(1.48177 1.48214)" d="M430.38 326.396C435.599 322.904 444.941 321.827 451.022 320.631C471.199 316.663 489.349 315.696 509.832 316.356C520.343 316.694 537.195 318.324 547.188 317.177C558.743 321.443 581.216 325.438 594.128 328.828C616.945 334.818 633.168 342.625 654.088 353.005C659.707 355.793 668.997 359.615 674.065 362.695C670.917 364.682 648.876 362.882 643.791 362.665C641.835 362.037 642.679 361.988 640.617 363.015C636.144 360.972 629.755 359.838 624.724 357.465C586.459 339.416 542.767 329.271 500.742 325.59C489.797 324.631 475.846 326.503 464.293 325.561C453.999 324.722 441.037 328.388 430.38 326.396Z"/><path fill="#D29FA4" transform="scale(1.48177 1.48214)" d="M383.257 305.589C389.134 303.721 394.346 302.743 400.41 301.814L397.546 307.69C396.178 311.324 392.671 320.628 390.65 323.803L390.757 324.042C389.217 328.38 387.764 332.749 386.398 337.145C381.234 333.466 379.797 332.424 373.571 331.507C372.837 325.841 372.935 323.107 374.635 317.65L375.023 316.4C376.806 314.6 377.296 313.36 378.429 311.109L383.257 305.589Z"/><path fill="#DDAF87" transform="scale(1.48177 1.48214)" d="M374.635 317.65C379.087 320.897 385.227 322.829 390.65 323.803L390.757 324.042C389.217 328.38 387.764 332.749 386.398 337.145C381.234 333.466 379.797 332.424 373.571 331.507C372.837 325.841 372.935 323.107 374.635 317.65Z"/><path fill="#CC8FB2" transform="scale(1.48177 1.48214)" d="M400.41 301.814C403.235 303.406 406.346 305.224 409.717 305.155C411.876 306.322 413.228 306.969 415.107 308.571C412.969 310.847 410.283 313.437 408.822 316.131L408.474 316.241C407.347 320.355 406.125 324.595 405.07 328.714C400.285 327.201 395.513 325.644 390.757 324.042L390.65 323.803C392.671 320.628 396.178 311.324 397.546 307.69L400.41 301.814Z"/><path fill="#B580A5" transform="scale(1.48177 1.48214)" d="M400.41 301.814C403.235 303.406 406.346 305.224 409.717 305.155C411.876 306.322 413.228 306.969 415.107 308.571C412.969 310.847 410.283 313.437 408.822 316.131L408.474 316.241C406.938 314.265 399.95 309.44 397.546 307.69L400.41 301.814Z"/><path fill="#825973" transform="scale(1.48177 1.48214)" d="M415.107 308.571C416.78 311.086 419.336 315.518 421.707 317.042L425.068 319.799C425.647 323.027 426.214 324.08 427.616 327.089L421.11 329.009L411.473 332.555L410.574 330.908C408.315 331.145 406.214 331.376 403.963 331.718L405.07 328.714C406.125 324.595 407.347 320.355 408.474 316.241L408.822 316.131C410.283 313.437 412.969 310.847 415.107 308.571Z"/><path fill="#93618C" transform="scale(1.48177 1.48214)" d="M408.822 316.131C412.216 318.794 416.965 321.092 417.756 325.115C416.878 328.893 413.881 329.504 410.574 330.908C408.315 331.145 406.214 331.376 403.963 331.718L405.07 328.714C406.125 324.595 407.347 320.355 408.474 316.241L408.822 316.131Z"/><path fill="#546A63" transform="scale(1.48177 1.48214)" d="M421.707 317.042L425.068 319.799C425.647 323.027 426.214 324.08 427.616 327.089L421.11 329.009C420.625 324.711 421.205 321.312 421.707 317.042Z"/><path fill="#D29FA4" transform="scale(1.48177 1.48214)" d="M390.757 324.042C395.513 325.644 400.285 327.201 405.07 328.714L403.963 331.718L403.249 336.444C401.102 339.078 397.365 343.006 394.435 344.742C391.779 342.185 389.1 339.653 386.398 337.145C387.764 332.749 389.217 328.38 390.757 324.042Z"/><path fill="#734C66" transform="scale(1.48177 1.48214)" d="M403.963 331.718C406.214 331.376 408.315 331.145 410.574 330.908L411.473 332.555C409.021 333.695 405.545 335.182 403.249 336.444L403.963 331.718Z"/><path fill="#B5ECAC" transform="scale(1.48177 1.48214)" d="M427.65 403.126C439.571 405.558 467.466 410.071 476.681 415.552C491.471 420.383 508.395 431.375 522.735 438.071C530.731 441.805 537.873 442.544 545.428 445.34L549.286 446.656C551.664 449.656 552.459 450.801 553.388 454.574C555.667 455.759 557.321 457.399 559.239 459.102C560.951 461.371 561.275 461.671 563.54 463.344C570.6 473.825 578.957 483.544 585.97 493.967C593.458 505.094 599.609 518.352 605.524 530.475C609.35 538.319 614.245 547.722 617.444 555.732C614.789 555.817 609.995 555.665 607.83 556.81C603.047 556.161 587.35 545.203 580.493 549.165L579.508 547.839C575.287 551.417 553.782 570.726 550.003 572.558C543.078 577.041 538.86 580.085 532.403 585.29C525.288 579.894 500.376 555.383 495.067 548.628C499.908 537.484 506.93 531.712 511.316 522.781C501.224 529.213 496.783 532.758 487.944 540.548C478.665 532.92 469.725 523.632 462.01 514.457C452.509 523.776 441.89 527.009 428.789 523.518C427.882 522.84 426.818 522.455 425.815 521.921C411.247 514.176 407.154 509.376 402.113 494.312C414.487 493.265 420.023 486.127 426.369 476.506C428.815 479.469 434.475 487.014 437.911 488.118C435.455 479.568 435.274 451.751 432.597 445.744C432.879 444.506 432.497 442.289 432.342 440.938C430.715 428.31 429.369 415.85 427.65 403.126Z"/><path fill="#7EBD8B" transform="scale(1.48177 1.48214)" d="M476.681 415.552C491.471 420.383 508.395 431.375 522.735 438.071C530.731 441.805 537.873 442.544 545.428 445.34L549.286 446.656C551.664 449.656 552.459 450.801 553.388 454.574C555.667 455.759 557.321 457.399 559.239 459.102C560.951 461.371 561.275 461.671 563.54 463.344C570.6 473.825 578.957 483.544 585.97 493.967C593.458 505.094 599.609 518.352 605.524 530.475C609.35 538.319 614.245 547.722 617.444 555.732C614.789 555.817 609.995 555.665 607.83 556.81C603.047 556.161 587.35 545.203 580.493 549.165L579.508 547.839C578.118 544.735 576.295 541.849 574.478 538.973C563.122 520.997 552.69 502.088 539.985 485.017C531.326 472.756 519.555 461.478 510.778 449.528C500.57 435.628 488.002 427.559 476.681 415.552Z"/><path fill="#78A57F" transform="scale(1.48177 1.48214)" d="M545.428 445.34L549.286 446.656C551.664 449.656 552.459 450.801 553.388 454.574C549.269 453.575 540.918 451.171 538.452 447.589C540.691 445.727 542.527 447.079 545.428 445.34Z"/><path fill="#734C66" transform="scale(1.48177 1.48214)" d="M437.911 488.118C446.438 482.871 455.28 477.246 463.884 472.197C458.004 480.924 452.25 489.736 446.625 498.63C449.128 501.131 460.478 512.213 462.01 514.457C452.509 523.776 441.89 527.009 428.789 523.518C427.882 522.84 426.818 522.455 425.815 521.921C411.247 514.176 407.154 509.376 402.113 494.312C414.487 493.265 420.023 486.127 426.369 476.506C428.815 479.469 434.475 487.014 437.911 488.118Z"/><path fill="#7EBD8B" transform="scale(1.48177 1.48214)" d="M263.329 398.112C269.447 393.219 269.049 390.143 276.146 390.127C280.138 385.185 286.925 373.422 293.238 372.325C285.989 381.255 270.162 400.472 264.636 410.637C272.514 420.184 283.962 434.443 291.091 444.546C294.163 449.67 297.138 454.851 300.015 460.087C291.474 463.477 281.836 467.556 273.274 470.616C275.875 488.318 282.758 496.235 292.165 511.077C297.001 518.708 301.153 526.913 307.036 533.817C309.778 537.086 313.233 539.092 315.947 541.795C315.205 542.492 314.676 543.311 313.931 543.012C306.732 540.116 294.733 531.809 288.198 527.959C294.099 534.904 301.41 544.871 306.698 552.474C298.005 562.159 283.245 579.892 274.738 588.035L255.117 575.117C259.307 580.193 266.237 588.083 269.833 593.253C261.038 600.32 251.348 606.678 242.257 613.392C228.901 623.255 215.848 632.741 201.877 641.718L200.068 642.744L199.176 642.129C197.983 635.042 196.981 628.488 195.564 621.391C191.844 602.764 183.129 586.3 187.084 567.133L188.044 562.951C195.428 542.019 202.509 520.982 209.285 499.846L215.782 496.061C217.881 491.831 218.774 490.058 220.103 485.443L219.927 473.494L215.981 467.831L220.322 465.318C217.119 458.681 212.879 441.898 210.19 433.752C209.829 431.693 210.632 430.411 211.471 428.515C213.618 423.023 217.576 415.556 220.264 410.114C221.069 414.948 218.269 416.499 222.519 419.62C229.306 420.74 237.446 407.079 240.236 406.208C251.829 402.588 244.548 398.148 249 392.731C254.364 394.261 252.109 391.171 257.216 391.361C259.455 392.327 261.735 395.98 263.329 398.112Z"/><path fill="#CAFEB9" transform="scale(1.48177 1.48214)" d="M263.329 398.112C269.447 393.219 269.049 390.143 276.146 390.127C280.138 385.185 286.925 373.422 293.238 372.325C285.989 381.255 270.162 400.472 264.636 410.637C257.409 425.658 250.275 440.725 243.236 455.835C238.767 465.457 232.34 478.933 229.415 488.939C243.369 482.572 257.477 476.547 271.727 470.871C266.672 478.174 259.296 487.999 255.418 495.866C245.824 515.323 233.877 535.16 226.002 555.263C219.506 571.846 215.822 589.738 210.587 606.73C207.518 617.545 202.759 630.81 201.877 641.718L200.068 642.744L199.176 642.129C197.983 635.042 196.981 628.488 195.564 621.391C191.844 602.764 183.129 586.3 187.084 567.133L188.044 562.951C195.428 542.019 202.509 520.982 209.285 499.846L215.782 496.061C217.881 491.831 218.774 490.058 220.103 485.443L219.927 473.494L215.981 467.831L220.322 465.318C217.119 458.681 212.879 441.898 210.19 433.752C209.829 431.693 210.632 430.411 211.471 428.515C213.618 423.023 217.576 415.556 220.264 410.114C221.069 414.948 218.269 416.499 222.519 419.62C229.306 420.74 237.446 407.079 240.236 406.208C251.829 402.588 244.548 398.148 249 392.731C254.364 394.261 252.109 391.171 257.216 391.361C259.455 392.327 261.735 395.98 263.329 398.112Z"/><path fill="#9BD299" transform="scale(1.48177 1.48214)" d="M220.322 465.318L224.334 476.731C224.458 480.426 222.96 481.949 220.636 484.601L220.103 485.443L219.927 473.494L215.981 467.831L220.322 465.318Z"/><path fill="#EFF1ED" transform="scale(1.48177 1.48214)" d="M220.636 484.601C220.615 481.562 219.416 477.639 221.535 475.527L224.334 476.731C224.458 480.426 222.96 481.949 220.636 484.601Z"/><path fill="#7EBD8B" transform="scale(1.48177 1.48214)" d="M211.471 428.515C214.627 428.564 220.26 426.518 223.491 425.515C219.994 427.561 213.061 431.393 210.19 433.752C209.829 431.693 210.632 430.411 211.471 428.515Z"/><path fill="#EFF1ED" transform="scale(1.48177 1.48214)" d="M188.044 562.951C191.735 562.641 195.207 562.341 198.891 561.859C194.832 564.17 191.708 565.917 187.084 567.133L188.044 562.951Z"/><path fill="#7EBD8B" transform="scale(1.48177 1.48214)" d="M373.571 331.507C379.797 332.424 381.234 333.466 386.398 337.145C389.1 339.653 391.779 342.185 394.435 344.742C398.787 351.573 413.672 377.898 413.408 385.697C408.609 388.686 394.497 397.149 390.614 400.493L384.23 404.536L379.942 407.689C373.553 401.421 367.046 394.968 359.927 389.536C363.875 397.511 368.277 405.252 373.113 412.722C364.131 418.403 349.329 427.355 341.092 433.915C334.448 427.767 328.153 421.252 322.238 414.401C325.656 422.109 330.104 430.299 334.352 437.609C325.252 444.009 313.65 452.32 304.008 457.683C301.575 454.805 293.983 445.235 291.091 444.546C283.962 434.443 272.514 420.184 264.636 410.637C270.162 400.472 285.989 381.255 293.238 372.325C304.639 364.094 313.765 352.373 326.945 345.101C332.205 342.198 359.504 334.19 360.486 333.071L358.432 332.19C363.481 332.03 368.528 331.802 373.571 331.507Z"/><path fill="#734C66" transform="scale(1.48177 1.48214)" d="M371.378 475.033C378.697 485.043 382.486 490.864 395.29 493.926C394.471 509.14 393.137 516.994 382.07 528.362C373.557 537.106 358.34 536.565 356.673 538.111C355.615 537.57 350.354 535.977 348.912 535.409C340.794 532.206 337.72 529.069 331.716 523.083C335.393 520 343.898 509.466 347.323 505.363C341.306 495.449 335.498 486.623 327.886 477.864C337.022 483.073 346.631 489.171 355.66 494.681C361.033 488.749 365.926 481.367 371.378 475.033Z"/><path fill="#825973" transform="scale(1.48177 1.48214)" d="M371.378 475.033L395.658 443.801C405.627 454.951 415.867 465.856 426.369 476.506C420.023 486.127 414.487 493.265 402.113 494.312L395.29 493.926C382.486 490.864 378.697 485.043 371.378 475.033Z"/><path fill="#7EBD8B" transform="scale(1.48177 1.48214)" d="M665.945 423.38C672.862 423.549 676.492 423.121 683.412 424.355L683.258 425.343C686.811 429.738 696.765 435.273 701.633 439.602C694.548 439.887 676.374 425.436 665.945 423.38Z"/><path fill="#6E6855" transform="scale(1.48177 1.48214)" d="M390.614 400.493C390.267 403.068 390.211 405.366 388.682 407.441C386.027 408.417 385.448 406.617 384.23 404.536L390.614 400.493Z"/><path fill="#CAFEB9" transform="scale(1.48177 1.48214)" d="M423.356 448.596C426.589 445.464 428.811 443.683 432.342 440.938C432.497 442.289 432.879 444.506 432.597 445.744C430.222 446.83 425.994 447.863 423.356 448.596Z"/><defs><linearGradient id="gradient_0" gradientUnits="userSpaceOnUse" x1="116.46674" y1="428.55786" x2="246.79247" y2="230.21692"><stop offset="0" stop-color="#90C790"/><stop offset="1" stop-color="#B7EEAD"/></linearGradient></defs><path fill="url(#gradient_0)" transform="scale(1.48177 1.48214)" d="M124.574 159.957C141.568 156.578 147.264 161.512 162.668 165.712C188.976 172.885 211.069 182.671 234.937 195.844C245.504 201.676 260.984 212.389 271.245 216.764C273.761 219.671 273.428 219.796 272.354 223.347C279.852 222.935 283.412 225.409 288.677 230.618C290.72 233.017 294.129 235.43 296.691 237.402C317.249 254.381 349.256 276.913 356.788 302.773C360.436 305.048 367.953 309.486 371.115 311.986C372.355 313.365 373.888 314.976 375.023 316.4L374.635 317.65C372.935 323.107 372.837 325.841 373.571 331.507C368.528 331.802 363.481 332.03 358.432 332.19L360.486 333.071C359.504 334.19 332.205 342.198 326.945 345.101C313.765 352.373 304.639 364.094 293.238 372.325C286.925 373.422 280.138 385.185 276.146 390.127C269.049 390.143 269.447 393.219 263.329 398.112C261.735 395.98 259.455 392.327 257.216 391.361C252.109 391.171 254.364 394.261 249 392.731C244.548 398.148 251.829 402.588 240.236 406.208C237.446 407.079 229.306 420.74 222.519 419.62C218.269 416.499 221.069 414.948 220.264 410.114C221.672 406.487 223.113 402.872 224.586 399.271L220.702 387.08C219.655 383.663 218.65 379.673 217.692 376.189C216.666 378.98 214.34 383.706 215.06 386.208C216.706 387.715 216.904 387.201 219.702 387.223L213.701 389.214C212.292 394.875 211.27 399.285 210.339 405.029C200.647 404.859 176.295 403.513 168.68 406.64L166.02 404.925L146.77 405.491C144.043 395.355 142.225 385.129 139.509 374.901C137.408 383.473 135.265 396.247 134.059 404.992C114.751 404.767 95.4412 404.703 76.1323 404.797C75.1982 400.353 73.0518 385.03 71.0814 381.953C70.6156 389.211 69.6581 397.471 69.4045 404.573C54.2649 403.613 39.1434 402.386 24.0471 400.892C17.7169 400.306 5.91162 399.504 0 398.317L0 389.216L0 383.236C10.5093 369.553 42.1396 345.073 57.8527 337.826C64.9462 334.555 99.3485 324.368 107.819 322.507C124.497 315.397 190.562 313.785 211.955 312.097C212.73 311.344 216.986 308.86 218.171 308.141C210.527 302.661 203.459 298.021 197.046 291.084C199.586 282.362 205.189 270.213 209.276 262.211C203.744 266.817 189.575 278.411 182.777 280.069C177.733 281.299 164.33 270.678 159.612 267.319C150.539 260.744 141.358 254.319 132.072 248.048C127.79 245.558 125.088 244.072 122.093 240.129C120.307 238.44 109.154 231.048 106.275 229C97.1199 222.489 91.2554 217.426 83.1225 209.934C74.4599 202.13 66.0857 193.856 57.6563 185.792C54.2348 182.518 47.0356 175.822 47.8549 170.815C50.5689 167.827 99.0807 162.403 104.945 162.066C109.133 160.995 120.056 160.132 124.574 159.957Z"/><path fill="#7EBD8B" transform="scale(1.48177 1.48214)" d="M124.574 159.957C141.568 156.578 147.264 161.512 162.668 165.712C188.976 172.885 211.069 182.671 234.937 195.844C245.504 201.676 260.984 212.389 271.245 216.764C273.761 219.671 273.428 219.796 272.354 223.347C279.852 222.935 283.412 225.409 288.677 230.618C290.72 233.017 294.129 235.43 296.691 237.402C317.249 254.381 349.256 276.913 356.788 302.773L354.879 303.572C348.183 304.35 341.169 305.326 335.896 309.914C317.653 289.943 300.284 274.38 279.318 257.304C259.094 240.832 242.42 224.832 219.568 211.57C202.532 201.683 186.294 190.062 168.072 181.904C152.63 174.991 136.852 169.594 121.457 162.565L121.707 161.816L124.756 160.868L124.574 159.957Z"/><path fill="#D8D8D7" transform="scale(1.48177 1.48214)" d="M271.245 216.764C273.761 219.671 273.428 219.796 272.354 223.347C270.737 224.111 269.5 224.077 267.98 223.567L267.659 222.426C268.294 219.621 269.272 218.859 271.245 216.764Z"/><path fill="#B5ECAC" transform="scale(1.48177 1.48214)" d="M0 383.236C10.5093 369.553 42.1396 345.073 57.8527 337.826C64.9462 334.555 99.3485 324.368 107.819 322.507L108.52 323.323C104.91 325.103 100.263 325.14 96.9656 326.572C84.5225 331.977 70.9548 334.358 58.1435 338.584C60.9471 340.304 65.5133 342.881 67.7605 345.056C79.8282 339.43 151.228 325.872 164.118 327.537C161.121 328.403 143.54 329.175 137.783 330.276C114.908 334.652 90.0669 338.915 67.8168 345.675C68.3693 350.596 71.6367 378.876 71.0814 381.953C70.6156 389.211 69.6581 397.471 69.4045 404.573C54.2649 403.613 39.1434 402.386 24.0471 400.892C17.7169 400.306 5.91162 399.504 0 398.317L0 389.216L0 383.236Z"/><path fill="#CAFEB9" transform="scale(1.48177 1.48214)" d="M0 383.236C10.5093 369.553 42.1396 345.073 57.8527 337.826C64.9462 334.555 99.3485 324.368 107.819 322.507L108.52 323.323C104.91 325.103 100.263 325.14 96.9656 326.572C84.5225 331.977 70.9548 334.358 58.1435 338.584C60.9471 340.304 65.5133 342.881 67.7605 345.056C51.75 357.029 31.4139 367.144 15.1305 379.306C11.84 381.764 3.13748 387.765 0 389.216L0 383.236Z"/><path fill="#CAFEB9" transform="scale(1.48177 1.48214)" d="M83.1225 209.934C74.4599 202.13 66.0857 193.856 57.6563 185.792C54.2348 182.518 47.0356 175.822 47.8549 170.815C50.5689 167.827 99.0807 162.403 104.945 162.066C109.269 162.261 113.262 162.176 117.579 162.1C109.668 170.519 98.7315 184.649 92.2671 194.493C90.543 198.73 89.7103 201.222 86.3162 204.283C85.3816 205.96 84.1223 208.378 83.1225 209.934Z"/><path fill="#EFF1ED" transform="scale(1.48177 1.48214)" d="M86.3162 204.283C84.5954 204.778 84.4472 204.898 82.7331 204.603C81.3706 201.034 89.0005 195.506 92.2671 194.493C90.543 198.73 89.7103 201.222 86.3162 204.283Z"/><path fill="#AE8864" transform="scale(1.48177 1.48214)" d="M356.788 302.773C360.436 305.048 367.953 309.486 371.115 311.986C372.355 313.365 373.888 314.976 375.023 316.4L374.635 317.65C372.935 323.107 372.837 325.841 373.571 331.507C368.528 331.802 363.481 332.03 358.432 332.19L357.853 332.105C355.405 332.528 354.446 332.721 351.934 332.68C349.793 321.996 351.976 313.659 354.879 303.572L356.788 302.773Z"/><path fill="#825973" transform="scale(1.48177 1.48214)" d="M371.115 311.986C372.355 313.365 373.888 314.976 375.023 316.4L374.635 317.65C372.935 323.107 372.837 325.841 373.571 331.507C368.528 331.802 363.481 332.03 358.432 332.19L357.853 332.105C358.052 331.358 369.808 313.969 371.115 311.986Z"/><path fill="#DDAF87" transform="scale(1.48177 1.48214)" d="M335.896 309.914C341.169 305.326 348.183 304.35 354.879 303.572C351.976 313.659 349.793 321.996 351.934 332.68C348.627 332.899 345.236 333.181 341.929 333.18C331.295 327.728 335.579 329.47 328.728 321.382L328.371 320.965C330.204 317.889 333.773 313.019 335.896 309.914Z"/><path fill="#EFF1ED" transform="scale(1.48177 1.48214)" d="M131.166 237C134.925 230.036 141.736 227.017 148.072 221.581C143.248 230.512 136.053 238.767 132.296 247.509L132.072 248.048C127.79 245.558 125.088 244.072 122.093 240.129L131.166 237Z"/><path fill="#D5A878" transform="scale(1.48177 1.48214)" d="M328.371 320.965L328.728 321.382C335.579 329.47 331.295 327.728 341.929 333.18C337.548 333.627 332.581 334.407 328.166 334.994C327.579 329.927 327.329 325.963 328.371 320.965Z"/><path fill="#55845E" transform="scale(1.48177 1.48214)" d="M211.955 312.097C212.73 311.344 216.986 308.86 218.171 308.141C221.49 310.599 225.327 313.597 228.738 315.827C221.982 315.605 217.825 315.823 211.955 312.097Z"/><path fill="#AE8864" transform="scale(1.48177 1.48214)" d="M447.557 883.202C450.714 914.729 448.769 948.974 451.168 980.731C451.437 984.285 450.37 987.945 450.297 991.378C450.791 994.849 451.001 996.452 450.928 999.928C452.254 1014.11 451.556 1036.17 451.809 1051.41C452.056 1066.24 453.038 1089.47 452.165 1103.72L452.105 1112.28L451.682 1161.9C451.676 1172.45 452.106 1185.13 451.076 1195.49C450.616 1200.12 446.709 1210.86 445.115 1215.46C438.69 1218.34 416.785 1227.16 410.321 1228.72C403.09 1228.23 368.953 1226.57 364.231 1224.54C358.149 1221.04 344.41 1210.1 338.418 1205.39C338.869 1189.77 340.411 1174 340.92 1158.35C341.318 1146.13 341.99 1133.77 342.805 1121.57C343.59 1118.84 343.903 1117.04 344.357 1114.22C342.681 1108.93 348.303 1019.1 349.161 1006.68C349.885 1003.71 351.156 1000.2 352.134 997.248C350.953 996.012 350.102 995.061 350.075 993.259C349.925 983.021 350.697 972.727 351.023 962.473L353.184 892.914C360.685 898.289 368.089 903.795 375.395 909.431C379.296 909.831 383.4 910.361 387.303 910.306C393.241 911.335 401.531 911.935 407.572 911.494C410.495 910.567 411.246 910.274 414.296 910.141C419.474 910.359 436.647 902.249 442.131 899.769C443.589 895.729 445.332 885.584 447.557 883.202Z"/><path fill="#AE8864" transform="scale(1.48177 1.48214)" d="M445.993 1119.59C446.857 1115.53 448.16 1104.76 452.165 1103.72L452.105 1112.28L451.682 1161.9C451.676 1172.45 452.106 1185.13 451.076 1195.49C450.616 1200.12 446.709 1210.86 445.115 1215.46C438.69 1218.34 416.785 1227.16 410.321 1228.72C403.09 1228.23 368.953 1226.57 364.231 1224.54C358.149 1221.04 344.41 1210.1 338.418 1205.39C338.869 1189.77 340.411 1174 340.92 1158.35C341.318 1146.13 341.99 1133.77 342.805 1121.57C343.59 1118.84 343.903 1117.04 344.357 1114.22L346.306 1112.91C350.601 1114.64 362.999 1125.36 369.21 1128.99L371.402 1129.26C384.606 1130.47 399.646 1132.16 412.773 1132.69C423.531 1128.74 435.181 1123.8 445.993 1119.59Z"/><path fill="#85634B" transform="scale(1.48177 1.48214)" d="M445.993 1119.59C446.857 1115.53 448.16 1104.76 452.165 1103.72L452.105 1112.28L451.682 1161.9C451.676 1172.45 452.106 1185.13 451.076 1195.49C450.616 1200.12 446.709 1210.86 445.115 1215.46C438.69 1218.34 416.785 1227.16 410.321 1228.72C410.916 1220.5 410.675 1209.84 410.833 1201.29L412.114 1145.17C399.171 1144.62 380.206 1143.21 367.55 1141.21C363.907 1139.13 346.239 1124.71 342.805 1121.57C343.59 1118.84 343.903 1117.04 344.357 1114.22L346.306 1112.91C350.601 1114.64 362.999 1125.36 369.21 1128.99L371.402 1129.26C384.606 1130.47 399.646 1132.16 412.773 1132.69C423.531 1128.74 435.181 1123.8 445.993 1119.59Z"/><path fill="#5C3F2D" transform="scale(1.48177 1.48214)" d="M445.993 1119.59C446.857 1115.53 448.16 1104.76 452.165 1103.72L452.105 1112.28C448.708 1116.35 447.227 1126.52 445.935 1132.05C414.018 1144.62 415.029 1144.29 379.753 1139.94C376.642 1136.34 374.224 1133.07 371.402 1129.26C384.606 1130.47 399.646 1132.16 412.773 1132.69C423.531 1128.74 435.181 1123.8 445.993 1119.59Z"/><path fill="#D5A878" transform="scale(1.48177 1.48214)" d="M342.805 1121.57C346.239 1124.71 363.907 1139.13 367.55 1141.21C366.225 1167.06 366.477 1199.77 364.231 1224.54C358.149 1221.04 344.41 1210.1 338.418 1205.39C338.869 1189.77 340.411 1174 340.92 1158.35C341.318 1146.13 341.99 1133.77 342.805 1121.57Z"/><path fill="#AE8864" transform="scale(1.48177 1.48214)" d="M447.557 883.202C450.714 914.729 448.769 948.974 451.168 980.731C451.437 984.285 450.37 987.945 450.297 991.378C447.133 994.159 446.381 1000.46 445.087 1004.7C437.232 1007.75 421.106 1014.98 414.23 1017.16C402.757 1016.8 389.195 1015.01 377.247 1014.41C376.961 1014.3 374.027 1013.81 373.515 1013.72C369.204 1010.81 354.68 998.282 352.134 997.248C350.953 996.012 350.102 995.061 350.075 993.259C349.925 983.021 350.697 972.727 351.023 962.473L353.184 892.914C360.685 898.289 368.089 903.795 375.395 909.431C379.296 909.831 383.4 910.361 387.303 910.306C393.241 911.335 401.531 911.935 407.572 911.494C410.495 910.567 411.246 910.274 414.296 910.141C419.474 910.359 436.647 902.249 442.131 899.769C443.589 895.729 445.332 885.584 447.557 883.202Z"/><path fill="#85634B" transform="scale(1.48177 1.48214)" d="M447.557 883.202C450.714 914.729 448.769 948.974 451.168 980.731C451.437 984.285 450.37 987.945 450.297 991.378C447.133 994.159 446.381 1000.46 445.087 1004.7C437.232 1007.75 421.106 1014.98 414.23 1017.16C414.429 990.227 412.709 962.938 413.005 935.956C413.088 928.452 413.095 920.379 412.662 912.926C411.424 911.841 409.457 911.835 407.572 911.494C410.495 910.567 411.246 910.274 414.296 910.141C419.474 910.359 436.647 902.249 442.131 899.769C443.589 895.729 445.332 885.584 447.557 883.202Z"/><path fill="#D5A878" transform="scale(1.48177 1.48214)" d="M353.184 892.914C360.685 898.289 368.089 903.795 375.395 909.431C375.56 919.098 374.012 1012.44 373.515 1013.72C369.204 1010.81 354.68 998.282 352.134 997.248C350.953 996.012 350.102 995.061 350.075 993.259C349.925 983.021 350.697 972.727 351.023 962.473L353.184 892.914Z"/><path fill="#85634B" transform="scale(1.48177 1.48214)" d="M445.087 1004.7C446.381 1000.46 447.133 994.159 450.297 991.378C450.791 994.849 451.001 996.452 450.928 999.928C452.254 1014.11 451.556 1036.17 451.809 1051.41C452.056 1066.24 453.038 1089.47 452.165 1103.72C448.16 1104.76 446.857 1115.53 445.993 1119.59C435.181 1123.8 423.531 1128.74 412.773 1132.69C413.458 1126.39 412.925 1104.66 412.957 1097.28C413.157 1074.38 413.479 1051.49 413.924 1028.59C405.839 1028.11 397.769 1027.38 389.727 1026.41L392.872 1024.28C389.663 1023.93 386.358 1023.66 383.136 1023.36C380.899 1020.26 379.236 1017.64 377.247 1014.41C389.195 1015.01 402.757 1016.8 414.23 1017.16C421.106 1014.98 437.232 1007.75 445.087 1004.7Z"/><path fill="#5C3F2D" transform="scale(1.48177 1.48214)" d="M445.087 1004.7C446.381 1000.46 447.133 994.159 450.297 991.378C450.791 994.849 451.001 996.452 450.928 999.928C448.924 1003.42 446.888 1011.8 445.877 1015.91C438.492 1018.9 430.657 1022.44 422.982 1024.42C413.326 1026.91 402.593 1024.17 392.872 1024.28C389.663 1023.93 386.358 1023.66 383.136 1023.36C380.899 1020.26 379.236 1017.64 377.247 1014.41C389.195 1015.01 402.757 1016.8 414.23 1017.16C421.106 1014.98 437.232 1007.75 445.087 1004.7Z"/><path fill="#D5A878" transform="scale(1.48177 1.48214)" d="M352.134 997.248C354.68 998.282 369.204 1010.81 373.515 1013.72C374.027 1013.81 376.961 1014.3 377.247 1014.41C379.236 1017.64 380.899 1020.26 383.136 1023.36C386.358 1023.66 389.663 1023.93 392.872 1024.28L389.727 1026.41C384.051 1026.3 378.39 1025.79 372.785 1024.89C372.23 1044.14 371.501 1063.39 370.598 1082.64C369.879 1097.13 368.479 1114.83 369.21 1128.99C362.999 1125.36 350.601 1114.64 346.306 1112.91L344.357 1114.22C342.681 1108.93 348.303 1019.1 349.161 1006.68C349.885 1003.71 351.156 1000.2 352.134 997.248Z"/><path fill="#85634B" transform="scale(1.48177 1.48214)" d="M352.134 997.248C354.68 998.282 369.204 1010.81 373.515 1013.72C374.027 1013.81 376.961 1014.3 377.247 1014.41C379.236 1017.64 380.899 1020.26 383.136 1023.36C386.358 1023.66 389.663 1023.93 392.872 1024.28L389.727 1026.41C384.051 1026.3 378.39 1025.79 372.785 1024.89C365.778 1018.94 356.617 1011.94 349.161 1006.68C349.885 1003.71 351.156 1000.2 352.134 997.248Z"/><path fill="#9BD299" transform="scale(1.48177 1.48214)" d="M501.479 229.457C517.437 211.868 534.734 204.201 555.473 193.471C574.347 183.706 633.629 162.101 653.607 168.461C656.518 168.658 659.65 168.811 662.525 169.149C662.573 169.85 662.632 170.715 662.703 171.743C668.339 180.552 679.177 194.702 683.753 203.439L684.16 203.68C687.216 209.964 690.899 216.066 694.425 222.11C690.293 225.489 654.468 247.597 649.984 249.564C642.544 242.576 634.869 235.842 626.973 229.374C629.701 234.76 641.219 252.473 641.099 256.063C637.609 259.896 595.364 286.698 590.205 288.523C584.711 285.485 570.388 273.792 565.351 269.162C569.197 279.029 574.78 288.057 578.414 297.091C573.293 301.462 553.386 314.325 547.188 317.177C537.195 318.324 520.343 316.694 509.832 316.356C489.349 315.696 471.199 316.663 451.022 320.631C444.941 321.827 435.599 322.904 430.38 326.396L427.616 327.089C426.214 324.08 425.647 323.027 425.068 319.799L421.707 317.042C419.336 315.518 416.78 311.086 415.107 308.571C413.228 306.969 411.876 306.322 409.717 305.155C413.2 297.513 416.104 292.959 422.058 287.074C424.496 284.664 430.268 280.461 431.544 277.967C431.685 277.804 431.825 277.642 431.965 277.479C452.055 261.823 473.058 244.428 494.49 230.809C496.319 229.647 499.638 229.542 501.479 229.457Z"/><path fill="#CAFEB9" transform="scale(1.48177 1.48214)" d="M501.479 229.457C517.437 211.868 534.734 204.201 555.473 193.471C574.347 183.706 633.629 162.101 653.607 168.461C657.711 169.792 659.085 169.975 663.402 170.402C636.77 179.228 606.831 188.094 582.541 202.288C567.51 211.071 552.142 218.91 537.397 228.122C527.689 234.519 518.124 242.064 508.779 249.064C494.784 259.428 480.924 269.971 467.2 280.692C459.809 286.583 453.204 292.176 446.329 298.637C440.699 303.928 430.78 316.18 425.068 319.799L421.707 317.042C419.336 315.518 416.78 311.086 415.107 308.571C413.228 306.969 411.876 306.322 409.717 305.155C413.2 297.513 416.104 292.959 422.058 287.074C424.496 284.664 430.268 280.461 431.544 277.967C431.685 277.804 431.825 277.642 431.965 277.479C452.055 261.823 473.058 244.428 494.49 230.809C496.319 229.647 499.638 229.542 501.479 229.457Z"/><path fill="#CAFEB9" transform="scale(1.48177 1.48214)" d="M325.865 97.5459C329.178 98.2761 330.821 98.7795 334.015 99.9501C344.509 103.045 354.59 108.045 364.772 112.326C377.975 117.878 387.931 121.018 394.615 134.893C398.732 143.439 403.787 151.458 407.487 160.402C401.63 159.636 395.763 158.939 389.889 158.312C394.492 160.789 407.129 166.923 410.435 169.397C413.686 177.4 422.407 207.22 424.665 216.548C417.688 216.164 410.599 215.864 403.668 215.049C408.194 217.763 422.972 225.725 426.224 228.197C427.65 245.175 429.951 261.275 431.544 277.967C430.268 280.461 424.496 284.664 422.058 287.074C416.104 292.959 413.2 297.513 409.717 305.155C406.346 305.224 403.235 303.406 400.41 301.814C394.346 302.743 389.134 303.721 383.257 305.589L378.429 311.109C377.296 313.36 376.806 314.6 375.023 316.4C373.888 314.976 372.355 313.365 371.115 311.986C367.953 309.486 360.436 305.048 356.788 302.773C349.256 276.913 317.249 254.381 296.691 237.402C294.129 235.43 290.72 233.017 288.677 230.618C291.513 229.753 293.114 229.43 295.505 227.662L295.105 225.912C294.298 208.818 291.728 191.213 290.793 173.802L290.332 169.863C289.137 158.107 288.815 141.936 285.982 131.021C299.408 118.38 308.439 116.288 318.812 99.6123L325.865 97.5459Z"/><path fill="#7EBD8B" transform="scale(1.48177 1.48214)" d="M334.015 99.9501C344.509 103.045 354.59 108.045 364.772 112.326C377.975 117.878 387.931 121.018 394.615 134.893C398.732 143.439 403.787 151.458 407.487 160.402C401.63 159.636 395.763 158.939 389.889 158.312C394.492 160.789 407.129 166.923 410.435 169.397C413.686 177.4 422.407 207.22 424.665 216.548C417.688 216.164 410.599 215.864 403.668 215.049C408.194 217.763 422.972 225.725 426.224 228.197C427.65 245.175 429.951 261.275 431.544 277.967C430.268 280.461 424.496 284.664 422.058 287.074C416.104 292.959 413.2 297.513 409.717 305.155C406.346 305.224 403.235 303.406 400.41 301.814C394.346 302.743 389.134 303.721 383.257 305.589L378.429 311.109C373.842 260.717 366.211 210.649 355.577 161.178C351.819 144.341 346.123 120.508 339.646 104.575C337.508 102.996 336.006 101.718 334.015 99.9501Z"/><path fill="#D8D8D7" transform="scale(1.48177 1.48214)" d="M306.064 222.884L310.267 221.472L310.633 226.058C304.981 230.026 301.667 233.542 296.691 237.402C294.129 235.43 290.72 233.017 288.677 230.618C291.513 229.753 293.114 229.43 295.505 227.662C301.843 228.104 303.871 229.186 306.064 222.884Z"/><path fill="#EFF1ED" transform="scale(1.48177 1.48214)" d="M290.332 169.863C294.223 167.161 304.267 166.386 311.411 162.606C306.749 167.442 301.89 173.843 294.899 173.702C293.701 173.678 291.925 173.644 290.793 173.802L290.332 169.863Z"/><path fill="#EFF1ED" transform="scale(1.48177 1.48214)" d="M295.105 225.912C295.199 224.566 295.142 223.15 295.847 222.048C301.06 223.561 300.539 223.989 306.064 222.884C303.871 229.186 301.843 228.104 295.505 227.662L295.105 225.912Z"/><path fill="#EFF1ED" transform="scale(1.48177 1.48214)" d="M310.267 221.472C313.82 220.662 316.714 219.978 320.22 218.896C317.105 221.388 314.032 223.979 310.633 226.058L310.267 221.472Z"/><path fill="#55845E" transform="scale(1.48177 1.48214)" d="M219.702 387.223L220.702 387.08L224.586 399.271C223.113 402.872 221.672 406.487 220.264 410.114C217.576 415.556 213.618 423.023 211.471 428.515C210.632 430.411 209.829 431.693 210.19 433.752C212.879 441.898 217.119 458.681 220.322 465.318L215.981 467.831C213.545 464.88 210.806 460.781 208.546 457.599C208.815 466.431 209.765 478.48 209.564 486.9C199.363 494.633 167.968 507.764 155.914 513.308C150.591 505.066 145.208 496.864 139.765 488.702C141.683 496.825 144.321 509.246 144.654 517.636C131.427 525.033 111.895 534.775 97.6307 540.918C94.9124 536.931 87.5448 524.975 84.9635 522.513C79.5252 513.143 72.7502 498.231 69.0839 488.38C74.1549 483.233 81.4552 480.848 88.1791 473.137L78.9682 473.188C92.5895 458.019 107.405 445.884 120.736 431.668L120.33 430.786C126.13 423.981 156.73 409.314 166.02 404.925L168.68 406.64C176.295 403.513 200.647 404.859 210.339 405.029C211.27 399.285 212.292 394.875 213.701 389.214L219.702 387.223Z"/><path fill="#9BD299" transform="scale(1.48177 1.48214)" d="M202.928 473.507C204.41 469.561 206.006 462.474 207.236 458.09L208.546 457.599C208.815 466.431 209.765 478.48 209.564 486.9C199.363 494.633 167.968 507.764 155.914 513.308C150.591 505.066 145.208 496.864 139.765 488.702C141.683 496.825 144.321 509.246 144.654 517.636C131.427 525.033 111.895 534.775 97.6307 540.918C94.9124 536.931 87.5448 524.975 84.9635 522.513C79.5252 513.143 72.7502 498.231 69.0839 488.38C74.1549 483.233 81.4552 480.848 88.1791 473.137C104.44 474.208 130.049 481.775 145.914 486.34L149.494 470.24C151.55 475.15 153.523 480.436 155.479 485.416C169.239 481.135 188.79 475.895 202.928 473.507Z"/><path fill="#D8D8D7" transform="scale(1.48177 1.48214)" d="M120.33 430.786C126.13 423.981 156.73 409.314 166.02 404.925L168.68 406.64C152.69 415.6 137.132 423.452 120.736 431.668L120.33 430.786Z"/><path fill="#85634B" transform="scale(1.48177 1.48214)" d="M395.29 493.926L402.113 494.312C407.154 509.376 411.247 514.176 425.815 521.921C426.818 522.455 427.882 522.84 428.789 523.518L432.968 599.311C433.973 617.644 435.352 637.061 435.773 655.349C431.759 658.455 432.376 662.266 430.526 667.213C400.876 680.457 406.349 677.119 375.505 675.859C371.869 673.139 366.943 668.866 362.802 667.671C360.433 668.054 361.193 667.588 359.847 669.29L359.531 673.038L356.342 671.545C358.361 662.67 356.12 654.78 356.274 645.473C356.728 618.176 355.779 590.391 356.52 563.14L356.995 558.973C356.698 552.109 356.732 544.998 356.673 538.111C358.34 536.565 373.557 537.106 382.07 528.362C393.137 516.994 394.471 509.14 395.29 493.926Z"/><path fill="#5C3F2D" transform="scale(1.48177 1.48214)" d="M425.012 562.389C425.961 559.805 426.814 556.793 428.68 554.842L429.308 555.281C429.318 560.346 427.983 565.091 426.862 570.043C418.951 574.064 409.128 579.308 400.183 580.286C388.778 581.534 375.013 580.631 365.952 572.867C362.579 569.977 357.333 567.733 356.52 563.14L356.995 558.973C362.416 559.908 365.241 564.822 370.299 567.175C390.052 576.364 406.481 570.93 425.012 562.389Z"/><path fill="#AE8864" transform="scale(1.48177 1.48214)" d="M435.956 786.142C437.871 781.836 440.076 775.004 442.561 771.593C444.297 799.775 445.076 828.189 446.701 856.378C447.006 861.673 446.576 874.372 447.082 877.839C444.363 881.139 442.918 885.181 441.26 889.154C432.072 893.846 422.507 898.799 412.41 901.165C407.178 901.71 390.008 900.073 384.073 899.624C381.054 899.063 378.109 899.64 375.381 898.313C371.475 895.486 359.885 885.923 356.245 884.794C355.445 885.656 355.164 885.995 353.999 886.375C353.574 856.727 354.388 827.182 354.466 797.533C354.483 791.378 354.326 784.52 355.015 778.465C361.509 785.447 367.794 788.992 374.827 794.869C382.984 796.242 400.021 796.583 409.051 797.264L408.196 796.395L410.666 795.551C420.154 793.393 427.234 790.379 435.956 786.142Z"/><path fill="#85634B" transform="scale(1.48177 1.48214)" d="M435.956 786.142C437.871 781.836 440.076 775.004 442.561 771.593C444.297 799.775 445.076 828.189 446.701 856.378C447.006 861.673 446.576 874.372 447.082 877.839C444.363 881.139 442.918 885.181 441.26 889.154C432.072 893.846 422.507 898.799 412.41 901.165C413.569 877.736 410.188 824.41 410.035 798.398C409.707 798.02 409.379 797.642 409.051 797.264L408.196 796.395L410.666 795.551C420.154 793.393 427.234 790.379 435.956 786.142Z"/><path fill="#D5A878" transform="scale(1.48177 1.48214)" d="M355.015 778.465C361.509 785.447 367.794 788.992 374.827 794.869C375.627 814.559 375.456 834.871 375.435 854.636C375.42 868.823 375.816 884.236 375.381 898.313C371.475 895.486 359.885 885.923 356.245 884.794C355.445 885.656 355.164 885.995 353.999 886.375C353.574 856.727 354.388 827.182 354.466 797.533C354.483 791.378 354.326 784.52 355.015 778.465Z"/><path fill="#85634B" transform="scale(1.48177 1.48214)" d="M430.526 667.213C432.376 662.266 431.759 658.455 435.773 655.349L436.803 659.429C438.176 678.474 438.684 698.836 439.682 717.997C440.462 732.982 441.618 750.066 441.227 764.79C439.169 767.76 437.699 772.712 436.463 776.242C433.18 777.686 410.279 788.179 408.479 787.682C399.19 787.336 388.637 786.131 379.26 785.247L374.831 784.023C371.332 781.536 361.543 773.484 358.131 772.18L356.369 773.414C354.224 764.051 355.406 734.663 355.608 724.222L356.342 671.545L359.531 673.038L359.847 669.29C361.193 667.588 360.433 668.054 362.802 667.671C366.943 668.866 371.869 673.139 375.505 675.859C406.349 677.119 400.876 680.457 430.526 667.213Z"/><path fill="#D5A878" transform="scale(1.48177 1.48214)" d="M356.342 671.545L359.531 673.038L360.487 674.558C365.303 693.33 370.384 712.057 374.775 730.923C374.905 747.68 375.626 767.616 374.831 784.023C371.332 781.536 361.543 773.484 358.131 772.18L356.369 773.414C354.224 764.051 355.406 734.663 355.608 724.222L356.342 671.545Z"/><path fill="#AE8864" transform="scale(1.48177 1.48214)" d="M374.775 730.923C379.247 737.913 407.504 782.173 408.705 787.019L408.479 787.682C399.19 787.336 388.637 786.131 379.26 785.247L374.831 784.023C375.626 767.616 374.905 747.68 374.775 730.923Z"/><path fill="#5C3F2D" transform="scale(1.48177 1.48214)" d="M430.526 667.213C432.376 662.266 431.759 658.455 435.773 655.349L436.803 659.429C436.197 664.781 433.45 671.291 431.452 676.429C406.287 688.827 401.725 687.548 374.555 684.958C370.329 681.534 365.165 677.074 360.487 674.558L359.531 673.038L359.847 669.29C361.193 667.588 360.433 668.054 362.802 667.671C366.943 668.866 371.869 673.139 375.505 675.859C406.349 677.119 400.876 680.457 430.526 667.213Z"/><path fill="#9BD299" transform="scale(1.48177 1.48214)" d="M550.003 572.558C553.782 570.726 575.287 551.417 579.508 547.839L580.493 549.165C587.35 545.203 603.047 556.161 607.83 556.81C611.655 559.031 615.522 561.178 619.43 563.25C620.278 586.239 615.862 612.788 614.394 636.064L614.213 636.727L613.135 637.252C609.043 636.319 574.865 613.088 567.398 608.692C561.515 605.228 542.343 594.151 536.473 590.255C540.259 584.486 546.219 578.897 550.003 572.558Z"/><path fill="#55845E" transform="scale(1.48177 1.48214)" d="M580.493 549.165C587.35 545.203 603.047 556.161 607.83 556.81C611.655 559.031 615.522 561.178 619.43 563.25C620.278 586.239 615.862 612.788 614.394 636.064C612.642 633.388 611.282 630.512 610.087 627.552C599.636 601.656 590.528 575.219 580.493 549.165Z"/><path fill="#B5ECAC" transform="scale(1.48177 1.48214)" d="M26.0406 557.039C26.8516 554.276 27.9011 551.467 28.8585 548.774C35.342 530.539 42.2327 513.938 52.2549 497.326C55.089 492.628 58.6205 485.302 62.4269 481.377C72.8161 470.665 84.9693 460.437 96.2693 450.675C101.814 445.884 114.37 433.585 120.33 430.786L120.736 431.668C107.405 445.884 92.5895 458.019 78.9682 473.188L88.1791 473.137C81.4552 480.848 74.1549 483.233 69.0839 488.38C72.7502 498.231 79.5252 513.143 84.9635 522.513C86.9832 529.004 89.9746 537.846 91.525 544.218C85.7738 545.795 80.0234 547.257 74.2549 548.759C57.4404 553.137 41.1834 558.807 24.2475 562.787C24.6275 561.449 25.476 558.126 26.0406 557.039Z"/><path fill="#CAFEB9" transform="scale(1.48177 1.48214)" d="M26.0406 557.039C26.8516 554.276 27.9011 551.467 28.8585 548.774C35.342 530.539 42.2327 513.938 52.2549 497.326C55.089 492.628 58.6205 485.302 62.4269 481.377C72.8161 470.665 84.9693 460.437 96.2693 450.675C101.814 445.884 114.37 433.585 120.33 430.786L120.736 431.668C107.405 445.884 92.5895 458.019 78.9682 473.188L88.1791 473.137C81.4552 480.848 74.1549 483.233 69.0839 488.38C58.3419 510.178 40.3561 531.486 29.8918 553.968C29.2898 555.261 27.7777 556.799 26.4005 557.299L26.0406 557.039Z"/><path fill="#7EBD8B" transform="scale(1.48177 1.48214)" d="M662.525 169.149C679.222 171.73 720.285 177.478 734.534 182.479C725.267 191.997 715.684 201.181 706.773 211.079C705.162 212.869 699.764 218.189 698.775 219.852C693.999 214.833 689.071 208.3 684.16 203.68L683.753 203.439C679.177 194.702 668.339 180.552 662.703 171.743C662.632 170.715 662.573 169.85 662.525 169.149Z"/><path fill="#5C3F2D" transform="scale(1.48177 1.48214)" d="M441.26 889.154C442.918 885.181 444.363 881.139 447.082 877.839C447.315 879.522 447.706 881.551 447.557 883.202C445.332 885.584 443.589 895.729 442.131 899.769C436.647 902.249 419.474 910.359 414.296 910.141C411.246 910.274 410.495 910.567 407.572 911.494C401.531 911.935 393.241 911.335 387.303 910.306C383.4 910.361 379.296 909.831 375.395 909.431C368.089 903.795 360.685 898.289 353.184 892.914C353.443 890.733 353.714 888.553 353.999 886.375C355.164 885.995 355.445 885.656 356.245 884.794C359.885 885.923 371.475 895.486 375.381 898.313C378.109 899.64 381.054 899.063 384.073 899.624C390.008 900.073 407.178 901.71 412.41 901.165C422.507 898.799 432.072 893.846 441.26 889.154Z"/><path fill="#85634B" transform="scale(1.48177 1.48214)" d="M353.999 886.375C355.164 885.995 355.445 885.656 356.245 884.794C359.885 885.923 371.475 895.486 375.381 898.313C378.109 899.64 381.054 899.063 384.073 899.624C381.733 899.679 381.019 899.253 379.554 900.482C380.335 903.67 384.487 907.006 387.154 908.659C391.17 908.001 410.47 909.216 414.296 910.141C411.246 910.274 410.495 910.567 407.572 911.494C401.531 911.935 393.241 911.335 387.303 910.306C383.4 910.361 379.296 909.831 375.395 909.431C368.089 903.795 360.685 898.289 353.184 892.914C353.443 890.733 353.714 888.553 353.999 886.375Z"/><path fill="#5C3F2D" transform="scale(1.48177 1.48214)" d="M441.227 764.79C442.47 767.413 442.869 768.599 442.561 771.593C440.076 775.004 437.871 781.836 435.956 786.142C427.234 790.379 420.154 793.393 410.666 795.551L408.196 796.395L409.051 797.264C400.021 796.583 382.984 796.242 374.827 794.869C367.794 788.992 361.509 785.447 355.015 778.465L356.369 773.414L358.131 772.18C361.543 773.484 371.332 781.536 374.831 784.023L379.26 785.247C388.637 786.131 399.19 787.336 408.479 787.682C410.279 788.179 433.18 777.686 436.463 776.242C437.699 772.712 439.169 767.76 441.227 764.79Z"/><path fill="#85634B" transform="scale(1.48177 1.48214)" d="M356.369 773.414L358.131 772.18C361.543 773.484 371.332 781.536 374.831 784.023L379.26 785.247L378.408 786.2C379.206 788.911 382.895 792.098 385.02 794.072C392.616 794.162 403.353 794.245 410.666 795.551L408.196 796.395L409.051 797.264C400.021 796.583 382.984 796.242 374.827 794.869C367.794 788.992 361.509 785.447 355.015 778.465L356.369 773.414Z"/><path fill="#D8D8D7" fill-opacity="0.011764706" transform="scale(1.48177 1.48214)" d="M684.16 203.68C689.071 208.3 693.999 214.833 698.775 219.852C694.927 222.708 694.838 220.006 694.425 222.11C690.899 216.066 687.216 209.964 684.16 203.68Z"/></svg>